<svg width="52" height="51" viewBox="0 0 52 51" fill="none" xmlns="http://www.w3.org/2000/svg">
<path d="M42.7903 8.13406e-06H9.20969C7.99981 -0.00160563 6.8015 0.236918 5.6834 0.701915C4.56531 1.16691 3.5494 1.84924 2.69388 2.70982C1.83837 3.5704 1.16005 4.59232 0.697786 5.71703C0.235524 6.84174 -0.00159618 8.04714 8.08621e-06 9.26419V41.7358C-0.00159618 42.9529 0.235524 44.1583 0.697786 45.283C1.16005 46.4077 1.83837 47.4296 2.69388 48.2902C3.5494 49.1508 4.56531 49.8331 5.6834 50.2981C6.8015 50.7631 7.99981 51.0016 9.20969 51H42.7903C44.0002 51.0016 45.1985 50.7631 46.3166 50.2981C47.4347 49.8331 48.4506 49.1508 49.3061 48.2902C50.1616 47.4296 50.84 46.4077 51.3022 45.283C51.7645 44.1583 52.0016 42.9529 52 41.7358V9.26419C52.0016 8.04714 51.7645 6.84174 51.3022 5.71703C50.84 4.59232 50.1616 3.5704 49.3061 2.70982C48.4506 1.84924 47.4347 1.16691 46.3166 0.701915C45.1985 0.236918 44.0002 -0.00160563 42.7903 8.13406e-06ZM31.785 35.9615H27.2553C27.179 35.9674 27.103 35.9466 27.0401 35.9027C26.9772 35.8588 26.9313 35.7944 26.91 35.7204L25.1347 30.5142H17.0625L15.4375 35.6346C15.4197 35.7273 15.3683 35.8101 15.2932 35.8667C15.2181 35.9234 15.1247 35.9499 15.0313 35.9411H10.9688C10.7331 35.9411 10.6681 35.8103 10.7331 35.5324L17.68 15.345C17.745 15.1243 17.81 14.8873 17.8953 14.6257C17.9841 14.1584 18.0277 13.6835 18.0253 13.2077C18.0191 13.1528 18.0337 13.0976 18.066 13.0529C18.0984 13.0083 18.1462 12.9775 18.2 12.9666H23.8103C23.985 12.9666 24.0703 13.032 24.0947 13.1423L32.0003 35.5897C32.0653 35.8308 32.0003 35.9411 31.785 35.9411V35.9615ZM39.26 35.7163C39.26 35.9574 39.1747 36.0637 38.9797 36.0637H34.7303C34.685 36.0672 34.6394 36.0604 34.597 36.0439C34.5546 36.0273 34.5164 36.0015 34.4853 35.9682C34.4541 35.9348 34.4308 35.8949 34.4169 35.8514C34.4031 35.8078 34.3991 35.7617 34.4053 35.7163V18.9166C34.4053 18.7 34.4947 18.6142 34.6897 18.6142H39C39.195 18.6142 39.2803 18.7204 39.2803 18.9166L39.26 35.7163ZM38.805 16.0192C38.5495 16.2803 38.2416 16.4835 37.9018 16.6153C37.5621 16.747 37.1982 16.8044 36.8347 16.7834C36.4787 16.7913 36.1247 16.7278 35.7934 16.5966C35.4621 16.4654 35.1601 16.2691 34.905 16.0192C34.4063 15.4742 34.142 14.753 34.1697 14.0127C34.1545 13.6536 34.2151 13.2954 34.3474 12.9615C34.4797 12.6277 34.6808 12.3258 34.9375 12.0757C35.4566 11.5796 36.147 11.3056 36.8631 11.3115C37.2271 11.2926 37.5909 11.3509 37.9311 11.4825C38.2712 11.6142 38.58 11.8163 38.8375 12.0757C39.3163 12.6038 39.5726 13.2983 39.5525 14.0127C39.567 14.3804 39.5084 14.7473 39.38 15.0919C39.2517 15.4364 39.0562 15.7517 38.805 16.0192ZM23.8347 26.0885H18.33C18.655 25.1731 18.98 24.1474 19.2847 23.0358C19.5894 21.9243 19.955 20.8577 20.28 19.8115C20.5759 18.8886 20.8214 17.95 21.0153 17H21.06C21.2103 17.5231 21.3647 18.0911 21.5353 18.7C21.7059 19.3089 21.905 19.9627 22.1203 20.6411C22.3356 21.3195 22.5266 21.9692 22.75 22.6435C22.9734 23.3178 23.1562 23.9308 23.335 24.5192C23.5137 25.1077 23.7047 25.6308 23.8347 26.0885Z" fill="#952323"/>
</svg>
