<svg width="52" height="52" viewBox="0 0 52 52" fill="none" xmlns="http://www.w3.org/2000/svg">
<path fill-rule="evenodd" clip-rule="evenodd" d="M9.45455 0C6.94704 0 4.54224 0.996101 2.76917 2.76917C0.996101 4.54224 0 6.94704 0 9.45455V42.5455C0 45.053 0.996101 47.4578 2.76917 49.2308C4.54224 51.0039 6.94704 52 9.45455 52H42.5455C45.053 52 47.4578 51.0039 49.2308 49.2308C51.0039 47.4578 52 45.053 52 42.5455V9.45455C52 6.94704 51.0039 4.54224 49.2308 2.76917C47.4578 0.996101 45.053 0 42.5455 0H9.45455ZM19.1218 7.09091H24.7095V18.2638H19.1242C18.3809 18.2793 17.642 18.1462 16.9508 17.8725C16.2595 17.5988 15.6299 17.1898 15.0987 16.6697C14.5675 16.1495 14.1455 15.5286 13.8573 14.8433C13.5691 14.158 13.4206 13.422 13.4205 12.6786C13.4203 11.9351 13.5685 11.1991 13.8564 10.5137C14.1443 9.82822 14.5661 9.20712 15.097 8.68674C15.628 8.16636 16.2575 7.75718 16.9486 7.48315C17.6397 7.20913 18.3785 7.07578 19.1218 7.09091ZM26.4302 19.1218V7.09091H32.4456C34.0118 7.13482 35.4992 7.78785 36.5914 8.91117C37.6837 10.0345 38.2948 11.5395 38.2948 13.1064C38.2948 14.6732 37.6837 16.1782 36.5914 17.3016C35.4992 18.4249 34.0118 19.0779 32.4456 19.1218H26.4302ZM32.0155 31.5876C33.4974 31.5876 34.9186 30.9989 35.9665 29.9511C37.0144 28.9032 37.6031 27.4819 37.6031 26C37.6031 24.5181 37.0144 23.0968 35.9665 22.0489C34.9186 21.0011 33.4974 20.4124 32.0155 20.4124C30.5335 20.4124 29.1123 21.0011 28.0644 22.0489C27.0165 23.0968 26.4278 24.5181 26.4278 26C26.4278 27.4819 27.0165 28.9032 28.0644 29.9511C29.1123 30.9989 30.5335 31.5876 32.0155 31.5876ZM24.7118 31.5876V20.4124H19.1218C17.6399 20.4124 16.2186 21.0011 15.1708 22.0489C14.1229 23.0968 13.5342 24.5181 13.5342 26C13.5342 27.4819 14.1229 28.9032 15.1708 29.9511C16.2186 30.9989 17.6399 31.5876 19.1218 31.5876H24.7118ZM24.7118 39.3215V33.7362H19.1218C18.0166 33.7362 16.9362 34.0639 16.0172 34.678C15.0983 35.2921 14.3821 36.1649 13.9593 37.1861C13.5364 38.2072 13.4259 39.3308 13.6417 40.4148C13.8575 41.4987 14.3899 42.4944 15.1716 43.2757C15.9533 44.0571 16.9491 44.589 18.0332 44.8044C19.1172 45.0197 20.2408 44.9087 21.2618 44.4854C22.2827 44.0622 23.1552 43.3456 23.7689 42.4264C24.3826 41.5072 24.7123 40.4267 24.7118 39.3215Z" fill="#952323"/>
</svg>
