<svg width="199" height="58" viewBox="0 0 199 58" fill="none" xmlns="http://www.w3.org/2000/svg">
<g clip-path="url(#clip0_101_272)">
<path d="M194.267 31.9529C198.969 30.3637 200.487 30.0323 197.357 29.6286C198.71 29.31 199.351 28.7831 198.715 27.8568C198.515 27.5636 197.631 27.4234 196.449 27.3724C196.285 26.9007 195.744 26.3526 194.739 25.439C194.724 25.422 194.706 25.4093 194.69 25.3965C194.711 25.3456 194.729 25.2988 194.742 25.2478C194.767 25.1416 194.785 25.0396 194.8 24.9419C195.618 26.3483 196.559 27.5678 197.992 27.0622C199.29 26.6033 198.826 23.5652 198.8 21.976C198.779 20.7735 198.669 19.8175 198.477 19.0399C198.91 18.1476 198.79 17.2978 197.328 16.6987C197.28 16.6774 197.231 16.6604 197.18 16.6392C196.128 15.6619 194.606 15.322 192.732 14.6421C192.293 14.4849 191.852 14.3319 191.409 14.1917C191.298 14.094 191.186 14.0005 191.073 13.907C191.042 13.8348 191.009 13.7668 190.973 13.6903C190.76 13.2612 190.316 12.9042 189.704 12.6111C192.07 12.0162 194.429 11.4595 194.38 11.1664C194.111 9.54746 188.996 10.3973 185.345 10.631C184.233 10.1933 183.066 9.80241 181.856 9.44548C183.197 8.07728 191.75 8.57017 192.296 8.59142C193.713 8.6509 197.423 9.30101 198.064 7.17647C198.405 6.04622 198.356 5.27713 197.459 5.1879C195.634 5.00519 193.583 4.9797 191.475 5.06893C191.478 5.06043 191.483 5.04768 191.488 5.03918C192.678 0.824091 172.968 2.54922 171.222 2.60021C166.302 2.68094 161.644 1.74189 156.865 1.76314C155.342 1.77164 154.232 2.1753 153.196 2.64695C153.073 2.48123 152.947 2.31977 152.819 2.1668C151.591 2.84665 150.622 3.30556 149.753 3.61574C147.415 3.64123 145.038 3.75596 142.78 3.87068C142.054 3.06336 141.139 2.62995 139.516 3.14834C138.685 3.41178 138.06 3.59874 137.552 3.70922C137.55 3.70922 137.544 3.70922 137.542 3.70922C136.478 3.64973 135.173 3.3523 133.866 3.1016C133.553 2.97413 133.207 2.84665 132.802 2.70644C131.789 2.35376 131.23 2.47698 130.72 2.73618C130.105 2.75318 129.543 2.8509 129.071 3.07611C128.589 3.30556 128.143 3.52651 127.725 3.73046C124.728 3.94292 123.6 3.68797 121.836 4.83948C121.057 4.55054 120.196 4.05339 119.165 3.29281C116.968 1.66966 114.402 2.29852 112.002 1.82687C108.992 1.18951 107.164 4.38482 103.554 4.64402C103.185 4.42307 102.77 4.14263 102.27 3.76871C101.137 2.91889 99.3294 3.02512 97.7963 3.62424C96.5093 3.40328 95.6607 3.62424 92.6944 4.7035C90.6922 4.4783 88.736 4.34233 87.0055 4.54204C86.8465 4.45281 86.6902 4.35933 86.5363 4.2616C86.5825 3.98116 86.603 3.64548 86.585 3.25457L86.4671 3.07186L86.0928 3.12709C85.7749 3.22057 85.5083 3.32255 85.2878 3.43728C84.2828 2.77442 83.1958 2.15405 81.7063 1.97134C79.8116 1.74189 77.8709 1.71215 75.9019 1.79288C75.2072 0.947314 74.0176 0.36519 71.4462 0.152735C69.1132 -0.0384733 67.2186 0.156985 65.0701 1.55068L64.4292 2.00959C63.9549 2.31552 63.5473 2.55347 63.1755 2.72768C63.0525 2.77442 62.9345 2.82116 62.8269 2.8764C61.6322 3.32255 60.7708 2.99112 59.2017 1.75039C57.6943 0.41193 59.1966 0.31845 55.9484 0.0974974C53.1949 -0.0852132 44.9986 -0.208437 42.781 1.31698C40.7941 2.68519 41.1863 3.05486 38.7482 3.20358C37.2023 3.29706 29.9033 3.78995 25.1655 4.43156C19.3561 4.38482 7.17578 4.75024 6.60151 6.10145C6.86301 6.60709 12.5212 7.5249 13.2262 7.60988C22.4172 8.71889 4.94533 9.46673 3.0738 12.0119C1.0587 14.7526 5.10172 14.8206 2.90972 17.5017C0.448534 20.5143 2.18162 20.5313 4.40695 21.5809C4.07622 22.0738 3.76088 22.6559 3.45836 23.3442C2.47645 26.0637 6.08107 25.2181 7.01683 25.83C6.65022 26.1826 6.21695 26.6118 5.73753 27.1514C4.89918 28.0267 3.98649 28.7363 3.17892 29.6031C1.54325 31.358 2.4303 32.1738 3.77114 32.6667C3.72499 32.8537 3.72243 33.0619 3.77627 33.2998C4.30952 35.6793 -0.556452 37.3747 0.0511539 39.8094C0.0973012 40.0006 0.222924 40.1706 0.402386 40.3278C0.540828 40.6295 0.825403 40.8845 1.25355 41.1012C1.09972 41.3689 0.961281 41.6365 0.922825 41.9C0.766437 42.053 0.65876 42.3249 0.620304 42.788C0.520318 44.0075 1.15869 45.0401 2.09445 45.8984C1.57658 46.0981 1.08178 46.2978 0.743363 46.5102C1.12792 46.7652 1.82783 46.8757 2.54824 46.9352C3.15328 48.2099 8.70634 49.7395 8.8012 49.7608C9.5293 49.918 10.283 50.071 11.0547 50.2112C11.1906 50.2707 11.329 50.3302 11.4777 50.3897C11.6162 50.4406 11.8444 50.4959 12.1417 50.5511C12.0623 50.8443 12.1905 51.146 12.6032 51.4477C11.6982 51.4902 10.8599 51.5752 10.142 51.7154C9.23447 51.8981 5.88879 53.1813 8.57815 54.8002C12.1212 56.929 29.2137 55.1571 34.6898 55.752C38.6688 56.1854 40.9274 56.4446 44.9653 56.0707C47.9136 55.7987 52.1002 56.4276 54.6639 55.735C55.6997 55.4546 56.656 55.2081 57.5712 54.9872C57.9558 55.1019 58.3839 55.1146 58.8761 54.9914C59.6401 54.796 60.2247 54.609 60.7195 54.456C61.1297 54.405 61.5347 54.3498 61.9321 54.2946C62.6295 54.6387 63.2114 54.9532 63.8985 54.8937C64.3805 54.8554 64.6497 54.762 64.8291 54.643C65.0932 54.745 65.3804 54.8682 65.6983 55.0042C68.6312 56.2874 68.0492 54.422 70.6463 54.2648C72.2204 54.1671 73.6741 54.2011 75.0636 53.9079C75.984 54.8512 78.3554 55.3016 82.1087 53.7847C82.3241 53.7719 82.542 53.7549 82.7676 53.7379C84.2059 53.6147 85.1878 53.3343 85.9672 53.0368C88.1489 53.0623 90.2179 53.1983 92.2971 53.3003C93.602 53.5977 94.9762 53.8824 96.3631 54.1119C97.7911 54.9574 98.7397 54.8002 100.011 54.575C102.616 54.7875 105.095 54.6982 107.077 54.0609C110.759 55.786 110.774 55.65 116.227 55.1996C116.612 55.1699 117.032 55.1231 117.478 55.0721C117.747 55.7562 118.099 56.0877 118.434 55.4758C118.524 55.3143 118.581 55.1316 118.611 54.9404C119.755 54.8045 121.003 54.6557 122.221 54.575C122.288 54.8045 122.377 54.9914 122.498 55.1146C123.259 56.8058 124.451 57.9998 129.446 57.8043C132.207 57.6981 132.448 57.2732 134.522 55.9092C136.088 55.8667 137.406 55.82 138.157 55.8157C138.549 55.8157 138.875 55.7817 139.142 55.7138C139.616 56.0494 140.054 56.4998 140.424 57.065C141.503 58.7136 154.111 57.8893 155.78 56.929C157.808 55.7605 157.319 54.9107 160.213 54.7492C162.523 54.6217 177.316 53.5935 177.844 52.6034C178.262 51.8216 176.544 52.391 175.552 51.9533C177.629 51.6814 179.592 51.3457 181.4 50.9378C182.136 50.8188 182.871 50.6871 183.597 50.5426C183.464 50.9718 183.951 51.4052 184.192 50.6658C184.194 50.5894 184.194 50.5044 184.184 50.4237C184.738 50.3089 185.281 50.1815 185.815 50.0497C185.689 50.1602 185.597 50.2749 185.548 50.3854C185.22 51.1417 187.671 52.5015 188.699 51.8598C189.004 50.2877 188.496 49.6376 187.801 49.4846C188.035 49.4081 188.263 49.3316 188.486 49.2509C189.596 48.9747 191.334 48.4478 191.337 47.9039C192.226 47.3261 192.888 46.6675 193.231 45.9069C192.683 45.6477 192.121 45.4862 191.552 45.3885C192.473 44.4537 193.024 42.6818 192.209 41.9425C192.214 41.917 192.216 41.8872 192.221 41.8617C193.319 41.5856 193.742 41.3306 193.708 40.3321C194.703 39.7415 195.616 38.9681 196.41 37.9526C200.756 32.4075 197.031 33.5378 193.824 32.4415C193.862 32.3098 193.903 32.1823 193.947 32.0549C194.052 32.0209 194.16 31.9869 194.267 31.9529ZM175.78 7.9583C175.565 7.92431 175.355 7.89032 175.149 7.86057C175.144 7.83083 175.139 7.80109 175.137 7.77134C175.085 7.77984 174.347 6.89178 173.645 6.27567C175.519 6.39889 177.521 6.53486 179.485 6.63259C177.454 7.13398 176.616 7.60563 176.257 8.04329C176.108 8.01354 175.952 7.98805 175.78 7.9583ZM179.287 8.76138C179.487 8.49369 179.964 8.49369 180.059 8.95259C179.805 8.88885 179.546 8.82087 179.287 8.76138ZM193.872 37.3195C193.936 37.6084 193.698 38.1735 193.47 37.7996C193.47 37.7954 193.467 37.7911 193.467 37.7911C193.606 37.6424 193.742 37.4852 193.872 37.3195Z" fill="#952323"/>
</g>
<defs>
<clipPath id="clip0_101_272">
<rect width="199" height="58" fill="white"/>
</clipPath>
</defs>
</svg>
