<svg width="62" height="80" viewBox="0 0 62 80" fill="none" xmlns="http://www.w3.org/2000/svg">
<g clip-path="url(#clip0_69_38)">
<path d="M8.64271 44.3684L0.677441 62.3076C0.381507 62.9916 0.0249592 64.6382 0.0249592 64.6382C-0.4956 70.8224 7.94387 74.7854 7.94387 74.7854C6.56047 70.8753 7.58376 68.8585 7.58376 68.8585L13.8946 53.0983L8.64271 44.3684Z" fill="white"/>
<path d="M53.3538 43.9136L61.319 61.8528C61.615 62.5333 61.9715 64.1833 61.9715 64.1833C62.4921 70.3676 54.0526 74.3305 54.0526 74.3305C55.436 70.4205 54.4092 68.4037 54.4092 68.4037L48.7828 52.8021L53.3538 43.9136Z" fill="white"/>
<path d="M30.6238 0L18.1125 21.4438C18.1125 21.4438 14.1691 27.2931 19.3462 35.8219L22.088 40.0881C22.088 40.0881 21.8777 34.6514 23.0115 32.6241L30.6238 19.3424L38.2575 32.2574C38.2575 32.2574 40.3825 36.6117 39.2451 40.0846C39.2451 40.0846 44.112 33.2904 44.2653 30.2759C44.2653 30.2759 45.2494 23.5134 42.6002 20.439L30.6238 0Z" fill="white"/>
<path d="M47.2533 26.5773C48.1767 33.3398 43.0639 39.6157 43.0639 39.6157L30.6239 60.6928L19.8669 41.8228L18.9827 42.3905L19.1966 43.2613L19.1039 44.9713L18.2232 46.6813L17.4032 47.3125L16.0768 47.8519L14.9751 48L13.8876 47.8272L13.146 47.5381L12.6005 47.1326L30.6204 80C30.6204 80 51.1931 46.9846 52.4874 41.0119C53.7817 35.0427 47.2533 26.5773 47.2533 26.5773Z" fill="#540000"/>
<path d="M2.21777 25.5055C2.21777 25.5055 7.64086 27.0674 9.64822 29.8528C11.6556 32.6382 14.7433 39.4253 14.7433 39.4253C14.7433 39.4253 17.9237 39.5557 19.4675 42.0943L19.8669 41.8228L12.743 28.4248C12.743 28.4248 8.66771 24.0599 2.21777 25.5055Z" fill="#540000"/>
<path d="M1.18018 27.4059L9.52338 30.5862L10.8569 33.2904L2.60993 29.4932C2.60993 29.4932 1.30853 28.587 1.18018 27.4059Z" fill="#540000"/>
<path d="M11.5984 35.9947L3.58683 32.8744L2.94861 31.2807L10.2685 34.2424C10.2685 34.2424 11.4344 34.9757 11.5984 35.9947Z" fill="#540000"/>
<path d="M13.4525 39.5522L5.44449 36.4319L4.80627 34.8383L12.1262 37.7999C12.1226 37.7999 13.2921 38.5333 13.4525 39.5522Z" fill="#540000"/>
<path d="M3.70447 30.6884C3.70447 30.8753 3.55115 31.0269 3.36218 31.0269C3.17321 31.0269 3.0199 30.8753 3.0199 30.6884C3.0199 30.5015 3.17321 30.3499 3.36218 30.3499C3.55115 30.3499 3.70447 30.5015 3.70447 30.6884Z" fill="#540000"/>
<path d="M5.06653 31.2067C5.06653 31.3936 4.91321 31.5452 4.72424 31.5452C4.53527 31.5452 4.38196 31.3936 4.38196 31.2067C4.38196 31.0198 4.53527 30.8682 4.72424 30.8682C4.91321 30.8682 5.06653 31.0198 5.06653 31.2067Z" fill="#540000"/>
<path d="M6.31091 31.7638C6.31091 31.9506 6.1576 32.1022 5.96863 32.1022C5.77966 32.1022 5.62634 31.9506 5.62634 31.7638C5.62634 31.5769 5.77966 31.4253 5.96863 31.4253C6.1576 31.4253 6.31091 31.5769 6.31091 31.7638Z" fill="#540000"/>
<path d="M7.73706 32.3667C7.73706 32.5535 7.58375 32.7052 7.39478 32.7052C7.20581 32.7052 7.05249 32.5535 7.05249 32.3667C7.05249 32.1798 7.20581 32.0282 7.39478 32.0282C7.58375 32.0282 7.73706 32.1798 7.73706 32.3667Z" fill="#540000"/>
<path d="M8.97424 32.8955C8.97424 33.0824 8.82093 33.234 8.63196 33.234C8.44299 33.234 8.28967 33.0824 8.28967 32.8955C8.28967 32.7087 8.44299 32.5571 8.63196 32.5571C8.82093 32.5571 8.97424 32.7087 8.97424 32.8955Z" fill="#540000"/>
<path d="M5.91162 34.3764C5.91162 34.5632 5.75831 34.7148 5.56934 34.7148C5.38037 34.7148 5.22705 34.5632 5.22705 34.3764C5.22705 34.1895 5.38037 34.0379 5.56934 34.0379C5.75474 34.0379 5.91162 34.1895 5.91162 34.3764Z" fill="#540000"/>
<path d="M7.27356 34.8982C7.27356 35.0851 7.12024 35.2367 6.93127 35.2367C6.7423 35.2367 6.58899 35.0851 6.58899 34.8982C6.58899 34.7113 6.7423 34.5597 6.93127 34.5597C7.12024 34.5597 7.27356 34.7113 7.27356 34.8982Z" fill="#540000"/>
<path d="M8.51794 35.4553C8.51794 35.6421 8.36463 35.7937 8.17566 35.7937C7.98669 35.7937 7.83337 35.6421 7.83337 35.4553C7.83337 35.2684 7.98669 35.1168 8.17566 35.1168C8.36463 35.1133 8.51794 35.2684 8.51794 35.4553Z" fill="#540000"/>
<path d="M9.94409 36.0582C9.94409 36.245 9.79078 36.3966 9.60181 36.3966C9.41284 36.3966 9.25952 36.245 9.25952 36.0582C9.25952 35.8713 9.41284 35.7197 9.60181 35.7197C9.79078 35.7162 9.94409 35.8713 9.94409 36.0582Z" fill="#540000"/>
<path d="M11.1777 36.587C11.1777 36.7739 11.0244 36.9255 10.8354 36.9255C10.6465 36.9255 10.4932 36.7739 10.4932 36.587C10.4932 36.4002 10.6465 36.2486 10.8354 36.2486C11.0244 36.245 11.1777 36.4002 11.1777 36.587Z" fill="#540000"/>
<path d="M19.1252 44.2627C19.1252 46.2406 17.5029 47.8484 15.4991 47.8484C13.4989 47.8484 11.873 46.2441 11.873 44.2627C11.873 42.2847 13.4953 40.6769 15.4991 40.6769C17.5029 40.6805 19.1252 42.2847 19.1252 44.2627Z" stroke="#540000" stroke-width="2.65" stroke-miterlimit="10"/>
<path d="M10.7143 39.2455C11.381 39.3653 11.8232 40 11.7019 40.6593C11.5807 41.3186 10.9389 41.7558 10.2722 41.6359C9.60543 41.5161 9.16331 40.8814 9.28454 40.2221C9.40576 39.5593 10.0475 39.1221 10.7143 39.2455Z" fill="#540000"/>
<path d="M15.7665 42.8277C16.5616 42.9722 17.0893 43.7267 16.9431 44.513C16.7969 45.2992 16.0339 45.8211 15.2388 45.6765C14.4437 45.5319 13.916 44.7774 14.0622 43.9912C14.2084 43.2049 14.9714 42.6866 15.7665 42.8277Z" fill="#540000"/>
<path d="M7.6015 38.0044C8.26824 38.1243 8.71036 38.7589 8.58913 39.4182C8.46791 40.0776 7.82612 40.5148 7.15938 40.3949C6.49263 40.275 6.05052 39.6404 6.17174 38.981C6.29653 38.3217 6.93475 37.8845 7.6015 38.0044Z" fill="#540000"/>
</g>
<defs>
<clipPath id="clip0_69_38">
<rect width="62" height="80" fill="white"/>
</clipPath>
</defs>
</svg>
