<svg width="52" height="52" viewBox="0 0 52 52" fill="none" xmlns="http://www.w3.org/2000/svg">
<path d="M21.9698 22.048C22.0092 22.8374 21.7706 23.6157 21.2956 24.2475C20.8206 24.8793 20.1391 25.3246 19.3698 25.506C18.0126 25.9068 16.5971 26.0739 15.1838 26C14.8198 26 14.7938 25.766 14.7938 25.506V18.876C14.7938 18.694 14.9758 18.382 15.0798 18.382C16.5671 18.2154 18.0721 18.3123 19.5258 18.668C20.2574 18.8685 20.8986 19.3129 21.343 19.9276C21.7875 20.5423 22.0087 21.2904 21.9698 22.048Z" fill="#952323"/>
<path d="M39 0H13C9.55219 0 6.24558 1.36964 3.80761 3.80761C1.36964 6.24558 0 9.55219 0 13V39C0 42.4478 1.36964 45.7544 3.80761 48.1924C6.24558 50.6304 9.55219 52 13 52H39C42.4478 52 45.7544 50.6304 48.1924 48.1924C50.6304 45.7544 52 42.4478 52 39V13C52 9.55219 50.6304 6.24558 48.1924 3.80761C45.7544 1.36964 42.4478 0 39 0ZM23.4 28.6C22.0878 29.4334 20.584 29.9168 19.032 30.004H15.548C14.82 30.004 14.82 30.004 14.82 30.706V36.738C14.82 37.258 14.664 37.414 14.144 37.414H10.712C10.218 37.414 10.088 37.232 10.088 36.764V14.846C10.088 14.326 10.088 14.17 10.738 14.17H18.876C20.3614 14.2103 21.8117 14.631 23.088 15.392C24.1903 16.0131 25.108 16.9156 25.7475 18.0073C26.387 19.099 26.7253 20.3408 26.728 21.606C26.8784 22.9659 26.6466 24.3409 26.0587 25.5763C25.4709 26.8118 24.5501 27.8589 23.4 28.6ZM38.792 37.18C36.5309 38.0609 34.0553 38.2332 31.694 37.674C30.9851 37.518 30.2917 37.31 29.614 37.05C29.5095 37.001 29.4176 36.9286 29.3455 36.8384C29.2734 36.7483 29.2229 36.6427 29.198 36.53V32.604C30.03 32.916 30.81 33.28 31.616 33.54C32.9668 33.9717 34.397 34.0961 35.802 33.904C36.0828 33.852 36.3515 33.7653 36.608 33.644C36.7604 33.5773 36.8928 33.4722 36.9925 33.339C37.0921 33.2058 37.1555 33.049 37.1764 32.884C37.1974 32.719 37.1752 32.5513 37.112 32.3974C37.0489 32.2436 36.9469 32.1087 36.816 32.006C36.2212 31.5943 35.5851 31.2457 34.918 30.966C33.852 30.446 32.76 30.03 31.746 29.432C30.8305 28.9866 30.083 28.2578 29.6146 27.3538C29.1462 26.4498 28.9819 25.4188 29.146 24.414C29.2782 23.4469 29.68 22.5366 30.3053 21.7871C30.9306 21.0377 31.7543 20.4793 32.682 20.176C34.3541 19.6106 36.1384 19.4589 37.882 19.734C38.714 19.734 39.52 20.046 40.352 20.202C40.794 20.202 40.95 20.566 40.924 21.008V24.05C40.924 24.622 40.794 24.674 40.274 24.466C38.6501 23.7142 36.8551 23.409 35.074 23.582C34.8216 23.6114 34.5758 23.6816 34.346 23.79C34.19 23.8512 34.0528 23.9522 33.9478 24.0828C33.8428 24.2134 33.7738 24.3691 33.7475 24.5346C33.7212 24.7001 33.7386 24.8696 33.798 25.0263C33.8574 25.183 33.9567 25.3215 34.086 25.428C34.8383 25.9289 35.6269 26.3623 36.452 26.728C37.44 27.222 38.48 27.612 39.442 28.158C40.3149 28.5552 41.038 29.2211 41.5058 30.0583C41.9735 30.8956 42.1614 31.8604 42.042 32.812C41.9598 33.7613 41.6077 34.6672 41.0272 35.4228C40.4467 36.1784 39.6621 36.752 38.766 37.076L38.792 37.18Z" fill="#952323"/>
</svg>
